<?xml version="1.0" standalone="no"?>
<!DOCTYPE svg PUBLIC "-//W3C//DTD SVG 1.0//EN" "http://www.w3.org/TR/2001/REC-SVG-20010904/DTD/svg10.dtd">
<svg xmlns="http://www.w3.org/2000/svg" xmlns:xlink="http://www.w3.org/1999/xlink" id="body_1" width="222" height="128">

<g transform="matrix(0.25 0 0 0.25 0 0)">
        <g transform="matrix(0.512 0 0 0.512 0 0)">
        <path d="M1384.5896 582.9319C 1399.3049 600.44604 1413.5397 618.05725 1427.78 635.6638C 1428.8092 636.93616 1429.879 638.1757 1431.034 639.5548C 1432.6522 637.7504 1431.9303 635.8507 1431.9325 634.1601C 1431.983 595.0015 1432.0471 555.8426 1431.8672 516.6848C 1431.8469 512.26044 1433.0126 511.06296 1437.4153 511.14417C 1452.4071 511.42078 1467.4084 511.35806 1482.4031 511.1736C 1486.0795 511.12842 1487.2365 512.12524 1487.2307 515.92566C 1487.1223 588.4106 1487.1202 660.8959 1487.234 733.3808C 1487.24 737.2344 1486.0187 738.10956 1482.3945 738.0426C 1470.7341 737.8271 1459.0673 737.9154 1447.4034 737.9947C 1444.9357 738.0114 1443.1027 737.5639 1441.4099 735.4272C 1421.6514 710.4853 1401.7786 685.6339 1381.7983 660.4399C 1381.3936 638.4145 1381.552 616.70685 1381.5192 594.99963C 1381.5155 592.51227 1381.4722 590.02216 1381.6854 587.54004C 1381.8439 585.69464 1382.0282 583.84674 1384.5896 582.9319z" stroke="none" fill="#8F67EE" fill-rule="nonzero" />
        <path d="M1384.9573 582.522C 1383.8634 585.49536 1384.001 588.3279 1384.0009 591.1417C 1383.9994 611.8423 1384.0154 632.5429 1383.976 653.2434C 1383.9717 655.491 1384.5333 657.96484 1382.0007 659.9071C 1369.7505 645.3491 1357.8405 630.5769 1345.9297 615.80524C 1344.2938 613.77637 1342.6552 611.7498 1340.0011 608.46313C 1340.0011 611.6909 1340.0012 613.42975 1340.0012 615.1686C 1340.0011 654.3164 1339.9172 693.4646 1340.115 732.61145C 1340.1377 737.1179 1338.8917 738.14557 1334.5635 738.0669C 1319.5757 737.7946 1304.5791 737.8815 1289.5876 738.0217C 1286.345 738.05206 1284.922 737.4938 1284.9275 733.747C 1285.0356 660.9489 1285.0314 588.1506 1284.9352 515.3525C 1284.9307 511.90686 1286.1823 511.17303 1289.2782 511.20682C 1300.9377 511.33392 1312.6008 511.3398 1324.26 511.19193C 1327.0754 511.15622 1328.8647 512.1626 1330.5635 514.29614C 1348.6149 536.9673 1366.7405 559.57947 1384.9573 582.522z" stroke="none" fill="#9A68E7" fill-rule="nonzero" />
        <path d="M832.3856 808.23254C 827.3252 808.5861 822.6661 808.8152 818.0164 808.69214C 815.08966 808.61475 813.9172 809.423 813.9618 812.5907C 814.1283 824.40735 814.1336 836.2292 813.9599 848.04565C 813.91205 851.305 815.238 852.0053 818.0945 851.86414C 821.41437 851.7 824.75024 851.8602 828.53906 851.9625C 830.77167 853.34485 831.3144 855.21277 831.35376 857.2781C 831.5719 868.7279 831.58185 880.17847 831.3416 891.6278C 831.307 893.27936 831.16144 894.9749 829.3682 896.51697C 825.17004 896.916 821.33984 897.0968 817.51764 896.991C 815.0307 896.9223 813.95886 897.6021 813.98126 900.3266C 814.09247 913.81494 814.09796 927.30536 813.9777 940.7935C 813.95264 943.6109 815.187 944.09546 817.57837 944.0351C 822.0715 943.9217 826.57007 944.02295 831.53033 944.0979C 834.78357 946.0859 834.64655 949.087 834.3156 951.79596C 833.0492 962.1627 833.7136 972.5642 833.41394 982.94543C 833.35333 985.0464 833.6057 987.30066 831.3856 989.2322C 807.33765 989.5836 783.6948 989.6385 760.0525 989.77094C 757.4673 989.7854 756.3587 988.78186 756.5424 986.2423C 756.5904 985.5799 756.5382 984.9106 756.5382 984.24445C 756.53906 911.9665 756.54016 839.6886 756.54596 767.41064C 756.546 766.579 756.60785 765.74725 756.75867 764.4598C 757.0535 763.8662 757.2305 763.7285 757.684 763.3992C 782.6625 763.1646 807.3645 763.1217 832.5306 763.1459C 834.46985 764.2102 835.1629 765.6203 835.2776 767.3788C 836.1066 780.0888 834.1734 792.7156 834.1224 805.3996C 834.11835 806.3936 833.6195 807.3055 832.3856 808.23254z" stroke="none" fill="#CD6AC9" fill-rule="nonzero" />
        <path d="M1611.3794 661.1C 1603.5349 653.198 1596.161 645.1461 1588.419 636.69214C 1587.241 639.0916 1587.5974 641.08417 1587.5958 642.97845C 1587.5707 672.8101 1587.4957 702.64233 1587.669 732.47296C 1587.6937 736.7469 1586.727 738.16846 1582.1831 738.0855C 1565.8561 737.7876 1549.5194 737.8783 1533.1886 738.0399C 1529.674 738.07465 1528.2222 737.40875 1528.2283 733.44684C 1528.3417 660.951 1528.3359 588.45483 1528.2389 515.959C 1528.2338 512.1959 1529.402 511.1259 1533.1006 511.16495C 1549.5978 511.33914 1566.0996 511.36612 1582.5958 511.14883C 1586.6274 511.09576 1587.669 512.4048 1587.6503 516.27356C 1587.5142 544.438 1587.5779 572.60345 1587.5784 600.76855C 1587.5785 602.7172 1587.5784 604.66583 1587.5784 606.6145C 1587.9869 606.8096 1588.3954 607.00464 1588.804 607.19977C 1596.361 598.96704 1603.9181 590.7343 1611.7598 582.3418C 1614.8655 583.6036 1615.3295 586.2989 1615.3281 588.9648C 1615.3173 611.44574 1616.3564 633.9448 1614.3047 656.3944C 1614.1348 658.253 1613.8816 660.08575 1611.3794 661.1z" stroke="none" fill="#8366F2" fill-rule="nonzero" />
        <path d="M1611.0374 661.551C 1612.5533 654.236 1612.6764 647.0266 1612.8639 639.9263C 1613.2861 623.9403 1613.0428 607.93536 1612.9552 591.9388C 1612.9388 588.96063 1612.3837 585.98535 1612.0608 582.59546C 1630.3801 561.9348 1649.0592 541.98303 1666.8722 521.2858C 1673.4288 513.6676 1680.0854 510.40768 1690.2345 510.99243C 1706.5111 511.9302 1722.8812 511.22568 1739.2118 511.27213C 1740.7897 511.2766 1742.4916 510.7496 1744.0911 511.85715C 1743.3774 514.2774 1741.3743 515.62354 1739.8486 517.26965C 1709.72 549.7786 1679.6085 582.3042 1649.307 614.6517C 1646.1437 618.02856 1645.9525 619.87866 1649.0872 623.4504C 1681.0698 659.8939 1712.8474 696.5176 1744.6776 733.0949C 1745.7614 734.34033 1746.796 735.6283 1747.8218 736.8582C 1746.8232 738.60785 1745.3268 737.93066 1744.1362 737.9333C 1723.6396 737.9791 1703.143 737.93384 1682.6465 738.00073C 1680.1581 738.00885 1678.3143 737.45996 1676.5619 735.4782C 1654.8173 710.88837 1632.9797 686.3808 1611.0374 661.551z" stroke="none" fill="#7A66F9" fill-rule="nonzero" />
        <path d="M1018.3982 989.2204C 996.0098 989.58966 974.0297 989.6347 952.0505 989.7981C 949.12787 989.8198 948.16644 988.5922 948.3783 985.9173C 948.44385 985.08984 948.38306 984.25256 948.38306 983.41974C 948.38275 912.13153 948.38184 840.8433 948.38403 769.5551C 948.3843 763.03687 948.3933 763.0329 954.74365 763.0319C 970.56696 763.02954 986.3935 763.2055 1002.2116 762.91943C 1006.6726 762.83875 1007.75507 764.1273 1007.7435 768.483C 1007.5988 823.1147 1007.64905 877.74695 1007.6493 932.379C 1007.64935 941.77167 1007.6495 941.77167 1017.5482 941.9977C 1019.7855 943.35034 1020.31683 945.212 1020.3538 947.2651C 1020.5771 959.63934 1020.574 972.01434 1020.34674 984.38824C 1020.3167 986.0208 1020.2054 987.7201 1018.3982 989.2204z" stroke="none" fill="#B968D2" fill-rule="nonzero" />
        <path d="M1137.6008 511.78552C 1146.1602 511.42853 1154.3145 511.4569 1162.46 511.20023C 1165.5846 511.10178 1166.2893 513.1623 1167.2848 515.2912C 1179.3302 541.0519 1191.3999 566.8011 1203.4587 592.5554C 1225.1785 638.9436 1246.8969 685.3325 1268.6066 731.7255C 1269.4368 733.49945 1270.1703 735.31854 1271.195 737.6852C 1268.9884 737.7929 1267.2526 737.9491 1265.5165 737.95123C 1249.7003 737.97015 1233.8812 737.7953 1218.0701 738.07697C 1213.9973 738.14954 1212.3079 736.71204 1210.836 733.1264C 1205.5961 720.3606 1199.8804 707.79065 1194.5802 695.04865C 1193.3087 691.99194 1191.7758 690.8719 1188.3723 690.91046C 1171.5597 691.1011 1154.7434 690.9793 1137.4639 690.90186C 1135.3428 689.71124 1134.6971 688.0682 1134.6833 686.14996C 1134.5941 673.755 1134.0043 661.3549 1135.1659 648.57117C 1135.7894 644.82495 1138.3293 644.6413 1140.9031 644.5888C 1148.2059 644.4399 1155.5109 644.6153 1162.8132 644.4969C 1168.4589 644.40533 1169.5021 643.00116 1167.3099 637.7883C 1160.1061 620.6573 1152.6821 603.6191 1145.4005 586.52045C 1144.3037 583.945 1143.1444 581.43274 1139.6543 583.9604C 1138.8512 584.5421 1137.729 584.32416 1136.418 583.6428C 1134.255 581.30145 1134.5981 578.70337 1134.5813 576.2714C 1134.462 559.01135 1134.4064 541.74963 1134.6085 524.4908C 1134.6582 520.2491 1134.7174 515.86273 1137.6008 511.78552z" stroke="none" fill="#A768DF" fill-rule="nonzero" />
        <path d="M637.6272 763.56067C 678.07794 770.4351 708.6715 800.20294 717.73157 842.2826C 724.46564 873.55945 723.38104 904.6115 709.3222 934.029C 693.40796 967.32886 665.95135 985.1462 630.0994 990.93616C 621.7095 992.2911 613.237 992.77704 604.3439 992.25024C 602.5838 990.8274 601.71027 989.2883 601.69904 987.3448C 601.6248 974.4671 600.9078 961.5822 602.277 948.2987C 603.3659 943.9641 606.6444 944.6525 609.31177 944.59863C 617.93744 944.4242 626.20337 942.86426 633.693 938.4253C 648.0828 929.8968 654.8728 916.2747 658.05316 900.60913C 661.77527 882.2752 661.4748 863.95514 656.5451 845.7884C 653.40173 834.2045 647.77185 824.30853 637.97833 817.0424C 636.2799 815.7823 634.241 814.64325 634.5911 811.5427C 634.4984 797.34894 634.07336 783.5816 635.5529 769.8572C 635.7789 767.76135 635.32355 765.4662 637.6272 763.56067z" stroke="none" fill="#D76AC2" fill-rule="nonzero" />
        <path d="M758 737.969C 747.67126 737.9697 737.8413 737.8862 728.01447 738.02435C 725.2043 738.06384 723.9687 737.17084 724.2806 734.33044C 724.3709 733.5077 724.288 732.66614 724.288 731.8332C 724.2877 660.36646 724.3472 588.8995 724.1637 517.4332C 724.15045 512.26196 725.5924 511.01883 730.5814 511.11896C 746.5676 511.4398 762.566 511.37442 778.55554 511.15848C 782.5659 511.1043 783.61993 512.37103 783.61456 516.257C 783.5143 588.5565 783.50714 660.8564 783.61957 733.1559C 783.6259 737.20496 782.2868 738.2074 778.48737 738.04614C 771.8358 737.7636 765.1636 737.9683 758 737.969z" stroke="none" fill="#CE68C5" fill-rule="nonzero" />
        <path d="M616.5874 599.93713C 625.2702 598.76587 625.2704 598.76587 625.2705 590.23816C 625.27075 565.5882 625.3449 540.93787 625.1937 516.2888C 625.17017 512.442 626.134 511.09372 630.19354 511.15018C 646.3461 511.37476 662.50446 511.3308 678.65875 511.18027C 682.0959 511.1482 683.2114 512.13104 683.20703 515.66064C 683.11646 588.278 683.11774 660.8954 683.2051 733.51276C 683.20917 736.92035 682.36615 738.0856 678.79065 738.0459C 662.47046 737.86456 646.14514 737.83435 629.8261 738.06354C 625.8739 738.119 625.18744 736.6901 625.20386 733.166C 625.3276 706.6845 625.27155 680.2023 625.26996 653.7202C 625.26953 646.3656 625.26685 646.3656 617.3947 646.1027C 615.2588 644.67926 614.6807 642.8239 614.6427 640.74414C 614.4235 628.7643 614.4319 616.7838 614.64764 604.80444C 614.6773 603.1598 614.7664 601.4412 616.5874 599.93713z" stroke="none" fill="#D869C0" fill-rule="nonzero" />
        <path d="M540.34705 645.6422C 539.3406 646.0774 538.6584 646.30524 538.0255 646.2088C 533.88043 645.57764 532.70593 647.2546 532.743 651.4221C 532.9441 674.0736 532.8384 696.7278 532.8381 719.38104C 532.838 724.21155 532.7197 729.0459 532.881 733.87103C 532.9752 736.6914 532.3949 738.0567 529.09796 738.0276C 512.27594 737.8789 495.45093 737.8712 478.62918 738.0384C 475.27332 738.07166 474.88742 736.6629 474.90128 733.8866C 474.99033 716.0643 474.94583 698.2413 474.94574 680.41846C 474.9455 625.9507 474.9936 571.4828 474.8548 517.0154C 474.8436 512.6221 475.73785 511.02536 480.52026 511.1258C 496.17084 511.45438 511.836 511.4384 527.4878 511.1431C 532.076 511.05652 532.96155 512.57935 532.92993 516.82086C 532.7411 542.1378 532.9668 567.4581 532.72705 592.77423C 532.6801 597.7272 533.6667 600.35077 539.5333 599.5584C 542.1704 600.7347 542.3133 602.8115 542.3504 604.8024C 542.57336 616.782 542.59125 628.7631 542.33875 640.7425C 542.30396 642.39325 542.14606 644.09985 540.34705 645.6422z" stroke="none" fill="#E76BB9" fill-rule="nonzero" />
        <path d="M603.9261 946.79395C 603.9877 961.8506 603.98 976.513 603.96466 991.6524C 557.63 992.3646 510.35306 966.3838 498.06955 907.8658C 492.92245 883.3453 493.2979 858.765 500.58987 834.7008C 511.3414 799.2197 534.64514 775.94745 570.62585 765.1914C 574.29755 766.2029 574.4052 768.9599 574.3944 771.6489C 574.3337 786.74963 575.0341 801.85913 573.9942 817.38495C 574.65686 819.6989 573.64844 821.05347 572.4854 822.26587C 563.6898 831.4347 559.76105 842.85864 558.0234 855.0244C 555.105 875.45776 554.91327 895.8257 562.98413 915.3521C 569.2479 930.50653 580.3844 940.1334 596.6184 943.63574C 599.12054 944.17554 602.009 944.01984 603.9261 946.79395z" stroke="none" fill="#E36BBB" fill-rule="nonzero" />
        <path d="M1136.9011 646.6379C 1137 661.30536 1136.9999 675.6125 1136.9995 690.3778C 1123.8411 690.8912 1110.6782 691.1633 1097.5277 690.87305C 1093.4237 690.7825 1091.7385 692.2934 1090.2886 695.7945C 1085.0043 708.5533 1079.3304 721.1505 1074.0427 733.9079C 1072.761 737.0004 1071.1635 738.0833 1067.7759 738.04895C 1049.7924 737.8661 1031.8062 737.96295 1013.8544 737.96295C 1012.95184 736.1278 1014.18933 734.95294 1014.7691 733.7097C 1048.739 660.8638 1082.7535 588.0387 1116.6707 515.1682C 1117.9685 512.3797 1119.3947 511.0088 1122.5986 511.18802C 1127.4158 511.45746 1132.2568 511.30243 1137.5485 511.42084C 1136.2329 532.87134 1137.2583 554.273 1137.0168 575.6546C 1136.991 577.95264 1136.6865 580.3261 1138.2305 582.80505C 1140.8877 584.96814 1139.6128 586.99146 1138.7903 588.9631C 1132.1996 604.76135 1125.288 620.4229 1118.6484 636.20056C 1115.6498 643.3264 1116.4337 644.28125 1124.3533 644.59845C 1128.5167 644.7652 1133.0165 643.12213 1136.9011 646.6379z" stroke="none" fill="#B068D9" fill-rule="nonzero" />
        <path d="M345.42114 811.9485C 327.79324 821.0107 319.96368 836.0787 316.938 854.3305C 313.99036 872.1115 314.33533 889.79626 318.93234 907.2915C 321.29443 916.2813 325.46243 924.3457 331.9406 931.5188C 333.11823 934.1402 333.40155 936.61566 333.42255 939.1086C 333.53577 952.5442 333.54102 965.98047 333.41235 979.41583C 333.39212 981.53143 333.58853 983.78406 331.4447 985.7446C 303.08792 977.88446 280.90594 961.78235 268.86792 935.2436C 248.6585 890.6904 249.48628 846.2578 276.88422 804.5647C 292.5676 780.6983 316.4753 768.2787 344.604 762.98096C 347.73633 763.4908 348.24878 765.57355 348.3028 767.81976C 348.60428 780.3651 348.60776 792.9119 348.3074 805.45776C 348.25092 807.817 347.218 809.7891 345.42114 811.9485z" stroke="none" fill="#FA6CAD" fill-rule="nonzero" />
        <path d="M899.3856 735.17834C 889.8707 715.4233 880.7667 695.8378 871.8019 676.1889C 847.5072 622.94025 823.2699 569.66534 799.0149 516.39856C 796.6781 511.2667 796.69464 511.24533 802.4516 511.24356C 819.43256 511.2384 836.41455 511.34753 853.3935 511.16406C 856.94183 511.1257 858.6321 512.2774 860.0241 515.54504C 874.49054 549.50287 889.12976 583.3871 903.76807 617.64746C 904.81647 630.7962 904.6604 643.61786 904.4359 656.4223C 904.01697 680.32245 903.1829 704.2146 903.3752 728.12555C 903.39746 730.8974 904.1229 734.4479 899.3856 735.17834z" stroke="none" fill="#C569CC" fill-rule="nonzero" />
        <path d="M349.59235 695.86786C 357.57712 694.6409 365.25003 694.139 372.29166 690.7649C 378.68448 687.70184 383.38116 683.2475 383.52893 675.64453C 383.67752 667.9987 379.0435 663.4102 372.74698 660.2252C 364.37292 655.9893 355.2619 653.9551 345.92145 651.4789C 344.94012 648.7845 345.24954 646.2695 345.5278 643.8129C 346.91965 631.5254 346.3519 619.1927 346.57193 606.8776C 346.61517 604.4558 346.09604 601.8014 348.6283 599.55C 365.8032 602.619 382.5018 606.40466 398.41296 612.98035C 402.24982 614.5661 405.95914 616.46484 409.70474 618.2662C 454.69717 639.9044 447.534 700.19775 416.48502 721.5849C 400.1776 732.81775 382.0959 737.9203 362.81384 739.9384C 358.84253 740.35406 354.84137 740.48474 350.42468 740.675C 347.9725 739.455 347.68018 737.45807 347.64288 735.455C 347.4272 723.87213 347.4218 712.28784 347.64847 700.7051C 347.68045 699.0694 347.76898 697.3593 349.59235 695.86786z" stroke="none" fill="#F16BB2" fill-rule="nonzero" />
        <path d="M389.6232 947.53174C 395.10767 946.4738 400.19818 945.58484 405.3265 945.0804C 408.38248 944.7798 409.08527 943.3674 409.05252 940.5333C 408.91968 929.0352 408.89606 917.53314 409.06332 906.03595C 409.10892 902.90137 408.04126 902.081 405.04703 902.12354C 394.38284 902.27496 383.7141 902.0993 373.04953 902.23676C 370.0964 902.2748 368.9602 901.488 369.01074 898.3325C 369.1842 887.50226 369.16415 876.6664 369.01953 865.8353C 368.98026 862.89526 369.7018 861.7439 372.88098 861.75616C 401.3797 861.8654 429.87912 861.85754 458.37802 861.7766C 461.1919 861.7686 462.07324 862.618 462.06665 865.45984C 461.98422 900.95856 461.9622 936.45776 462.0964 971.9562C 462.10913 975.32355 460.19162 976.0942 457.83487 977.0943C 436.43436 986.1762 413.98846 990.531 390.44812 991.9358C 388.18674 990.6095 387.68408 988.7346 387.645 986.6722C 387.42838 975.2502 387.42017 963.82764 387.65695 952.4062C 387.6911 950.7583 387.83524 949.06775 389.6232 947.53174z" stroke="none" fill="#EF6BB4" fill-rule="nonzero" />
        <path d="M348.62674 599.1222C 348.79504 614.3689 349.64404 629.5079 348.01538 644.5991C 347.7806 646.7742 347.7304 648.92505 345.8829 650.9558C 327.747 647.9979 310.18213 643.63446 293.6471 635.9714C 254.53474 617.8452 244.72897 571.5056 273.14163 538.7881C 288.05243 521.6181 307.8585 513.672 329.73724 510.02597C 332.52087 509.5621 335.34753 509.35672 338.57532 509.0857C 340.43036 510.1806 341.1544 511.5805 341.27982 513.35535C 342.18414 526.1519 340.34433 538.86456 340.10995 551.6262C 340.09152 552.6298 339.5586 553.53 338.36145 554.5116C 334.36624 556.0223 330.77673 557.27844 327.21777 558.69336C 319.2934 561.8439 315.87173 568.06946 315.1999 575.9165C 314.52032 583.8543 319.44058 588.39014 326.07855 591.56445C 333.1742 594.9576 340.7103 596.9827 348.62674 599.1222z" stroke="none" fill="#FA6CAD" fill-rule="nonzero" />
        <path d="M963.99097 573.4182C 972.31165 553.2414 980.765 533.53986 989.10004 513.7882C 990.21716 511.14087 992.16455 511.23254 994.3682 511.23572C 1011.184 511.2598 1028.0016 511.38446 1044.8146 511.1683C 1049.4563 511.10864 1049.6677 512.346 1047.9125 516.1651C 1033.3285 547.8963 1018.89606 579.6971 1004.4139 611.47504C 991.79395 639.16675 979.169 666.85614 966.2945 694.7838C 962.4352 695.05804 962.73816 692.1855 962.685 690.0455C 962.3873 678.062 961.97107 666.0427 962.794 654.0984C 963.3907 645.439 963.38574 636.80865 963.5077 628.16156C 963.76263 610.0677 962.9547 591.96246 963.99097 573.4182z" stroke="none" fill="#B968D4" fill-rule="nonzero" />
        <path d="M963.6424 573.198C 966.05994 574.5864 965.99347 576.95624 965.99347 579.2976C 965.9937 601.8931 966.61523 624.5124 965.7552 647.0752C 965.23627 660.6896 965.2844 674.2858 965.0163 687.88855C 964.9741 690.0332 964.7688 692.22107 965.8562 694.65106C 959.9491 708.64905 953.8295 722.2655 947.7914 735.91797C 946.9385 737.8464 945.5243 737.98193 943.7739 737.9778C 930.14404 737.9456 916.5139 737.9583 902.8839 737.95966C 901.19867 737.95984 899.4553 738.0829 898.9419 735.4464C 901.0654 733.4022 900.9735 731.0322 900.99615 728.69324C 901.3292 694.33984 901.65204 659.98627 902.0278 625.6333C 902.05426 623.2148 901.3345 620.60345 903.52576 618.2389C 910.3579 632.91486 916.9007 647.8266 924.0533 664.1283C 937.46564 633.20575 950.42755 603.32153 963.6424 573.198z" stroke="none" fill="#BF69D1" fill-rule="nonzero" />
        <path d="M345.51074 812.2676C 346.7609 798.3211 345.736 784.23303 345.96185 770.1711C 345.99594 768.04755 345.52786 765.916 345.1479 763.3988C 356.25302 760.2123 367.72516 759.73663 379.21027 760.22375C 402.59747 761.21576 425.16696 765.5967 445.6408 777.71045C 455.339 783.4486 455.2956 783.52985 450.76083 793.8717C 446.6851 803.16693 442.4725 812.4053 438.58792 821.7796C 437.213 825.09753 436.14905 825.9881 432.73895 823.76764C 413.74057 811.39716 392.8634 805.77124 370.16547 806.95593C 361.77188 807.39404 353.66754 808.9888 345.51074 812.2676z" stroke="none" fill="#F16BB2" fill-rule="nonzero" />
        <path d="M349.54178 695.52313C 350.00198 710.3014 349.998 725.009 349.9947 740.1599C 318.00177 741.50757 287.4494 735.9694 259.25867 720.10675C 252.88452 716.52014 252.97626 716.36566 255.82227 709.8826C 260.49686 699.2341 265.26364 688.62415 269.77292 677.90594C 270.99655 674.9974 272.02908 674.63654 274.7841 676.25806C 297.6954 689.7438 322.45877 696.23175 349.54178 695.52313z" stroke="none" fill="#FA6CAD" fill-rule="nonzero" />
        <path d="M338.41998 554.8621C 338.32986 539.9134 338.66428 524.9863 338.99753 509.59955C 369.7819 506.81677 399.03314 511.89017 426.1445 527.2426C 427.30075 527.89734 428.31567 528.8078 429.48636 529.4298C 433.51346 531.56946 434.4497 533.9879 432.23685 538.5572C 427.1648 549.0305 422.70892 559.81396 418.3281 570.6036C 416.88852 574.1491 415.84476 574.6743 412.46777 572.4844C 392.82455 559.7456 371.3835 552.9511 347.77423 553.9436C 344.78976 554.06903 341.8207 554.5614 338.41998 554.8621z" stroke="none" fill="#F16BB2" fill-rule="nonzero" />
        <path d="M1018.451 989.5986C 1017.9931 974.0058 1017.9966 958.5041 1017.99976 942.53845C 1045.641 942.01044 1073.2826 941.9661 1100.9237 941.84735C 1103.3435 941.837 1104.0514 942.7748 1104.0394 945.0838C 1103.9679 958.90643 1103.9198 972.7305 1104.0569 986.5521C 1104.0955 990.44324 1101.5652 989.7371 1099.351 989.7395C 1078.5331 989.76196 1057.7153 989.7571 1036.8975 989.74945C 1030.9025 989.7472 1024.9073 989.71045 1018.451 989.5986z" stroke="none" fill="#B268D6" fill-rule="nonzero" />
        <path d="M831.44147 989.6012C 831.02704 974.6838 830.7343 959.85376 831.996 944.61005C 859.294 944.1062 886.5939 944.08386 913.8931 943.948C 916.67566 943.9342 917.6961 944.7735 917.67236 947.61554C 917.5669 960.26733 917.5437 972.92145 917.68756 985.57245C 917.72534 988.891 916.51465 989.82135 913.3109 989.80756C 886.1752 989.69055 859.0388 989.71466 831.44147 989.6012z" stroke="none" fill="#C368CB" fill-rule="nonzero" />
        <path d="M832.44147 808.6012C 832.3187 793.7116 832.6572 778.91724 832.99524 763.66785C 859.9534 763.1542 886.9126 763.15027 913.8705 762.96704C 917.2104 762.9444 917.682 764.3966 917.66425 767.14844C 917.5847 779.4642 917.49945 791.783 917.71063 804.0957C 917.77625 807.9253 916.4213 808.8491 912.79016 808.8254C 890.82153 808.6817 868.85144 808.7624 846.88184 808.75867C 842.2221 808.7579 837.5624 808.71814 832.44147 808.6012z" stroke="none" fill="#C368CB" fill-rule="nonzero" />
        <path d="M829.46094 896.928C 828.99774 882.23016 828.99866 867.60345 828.99927 852.5111C 855.3082 851.9744 881.6176 851.9219 907.92676 851.8009C 910.2832 851.79004 911.1258 852.6288 911.1123 854.99207C 911.03784 867.9826 910.9937 880.9747 911.1313 893.9642C 911.16833 897.4597 909.0312 897.03595 906.87115 897.0347C 881.2225 897.0204 855.5738 897.0104 829.46094 896.928z" stroke="none" fill="#C569CC" fill-rule="nonzero" />
        <path d="M540.4604 646.094C 539.9949 630.84283 539.9898 615.6862 539.98047 600.1051C 551.7445 599.56726 563.5127 599.39124 575.2813 599.357C 588.88586 599.3174 602.4908 599.40265 616.55176 599.55115C 617.00507 614.8017 617.0022 629.93475 616.9988 645.53687C 591.63904 646.0667 566.2799 646.12756 540.4604 646.094z" stroke="none" fill="#E16BBD" fill-rule="nonzero" />
        <path d="M572.2501 819.04346C 571.9655 803.3086 572.01086 787.84753 571.9591 772.3868C 571.9519 770.25024 571.4641 768.1153 571.09937 765.5862C 588.9927 760.29767 607.1282 758.4958 625.70184 761.6728C 629.47906 762.31885 633.3891 763.1018 637.65576 763.1521C 637.8892 777.8552 636.4197 792.4114 636.9319 807.0191C 636.9829 808.4739 636.4711 809.9483 636.0729 811.818C 633.80273 814.74316 631.656 812.89685 629.61884 812.1549C 615.1761 806.8943 600.7811 806.71 586.4366 812.45776C 583.0359 813.8204 579.9743 815.8228 577.00116 817.9496C 575.67017 818.9017 574.4414 820.19025 572.2501 819.04346z" stroke="none" fill="#E16BBD" fill-rule="nonzero" />
        <path d="M389.56586 947.1562C 390.0012 961.78656 390.00113 976.3722 390.00092 991.4187C 370.22058 993.4455 350.70026 992.2339 331.31042 986.19635C 331.0079 971.00446 331.01312 956.0317 330.99796 941.0589C 330.9951 938.22327 331.0234 935.39935 331.97516 932.2388C 348.42676 946.87115 368.38763 948.45013 389.56586 947.1562z" stroke="none" fill="#F16BB2" fill-rule="nonzero" />
        <path d="M757.6865 763.18945C 757.7362 763.40625 757.50134 763.59174 757.0663 763.8839C 757.0552 763.7265 757.2339 763.44904 757.6865 763.18945z" stroke="none" fill="#C368CB" fill-rule="nonzero" />
        <path d="M1137.4612 646.90735C 1130.0397 646.9163 1123.075 646.6509 1116.121 646.8239C 1112.1644 646.92236 1111.6772 645.82874 1113.1938 642.33954C 1121.6462 622.8937 1129.9304 603.37463 1138.375 583.51953C 1139.7576 580.4791 1141.0375 577.7998 1142.3438 575.065C 1144.0249 576.2612 1144.3057 578.0024 1144.9496 579.49634C 1153.8413 600.13055 1162.6975 620.7801 1171.5533 641.4298C 1173.8193 646.7137 1173.8047 646.7307 1167.9158 646.7487C 1157.918 646.7793 1147.92 646.79474 1137.4612 646.90735z" stroke="none" fill="#3A073F" fill-rule="nonzero" />
        <path d="M571.7792 819.0649C 591.5668 802.6444 612.7834 801.6938 635.56146 812.15985C 655.9899 825.64374 661.3732 846.14856 662.7752 868.4266C 663.50836 880.0777 662.6215 891.65643 660.181 903.13605C 655.28204 926.17975 639.4513 948.8369 604.4581 947.1365C 579.53345 944.8383 563.38885 931.2044 557.32025 906.97205C 552.1862 886.4717 552.3099 865.79395 557.3588 845.26227C 559.7764 835.43146 564.4401 826.66406 571.7792 819.0649z" stroke="none" fill="#3A073F" fill-rule="nonzero" />
        </g>
</g>
</svg>
